<?xml version="1.0" standalone="no"?>
<!DOCTYPE svg PUBLIC "-//W3C//DTD SVG 20010904//EN"
 "http://www.w3.org/TR/2001/REC-SVG-20010904/DTD/svg10.dtd">
<svg version="1.0" xmlns="http://www.w3.org/2000/svg"
 width="360.000000pt" height="360.000000pt" viewBox="0 0 360.000000 360.000000"
 preserveAspectRatio="xMidYMid meet">

<g transform="translate(0.000000,360.000000) scale(0.100000,-0.100000)"
fill="#000000" stroke="none">
<path d="M1795 3450 c-142 -15 -414 -85 -430 -110 -3 -5 0 -61 6 -124 6 -63 9
-120 7 -127 -2 -6 -23 37 -47 95 -24 59 -48 109 -53 112 -5 3 -48 -18 -95 -48
-110 -68 -301 -250 -399 -381 -122 -162 -216 -377 -249 -569 l-6 -38 43 0 c74
0 77 -14 9 -51 l-61 -34 0 -110 c0 -111 12 -235 31 -331 l10 -51 42 8 c80 15
82 12 24 -41 l-54 -49 8 -53 c10 -59 37 -132 85 -228 50 -99 50 -99 64 -39 25
109 115 260 222 374 l60 65 62 0 61 0 20 -85 21 -85 -28 0 c-15 0 -28 -2 -28
-5 0 -3 13 -31 29 -63 29 -58 91 -240 91 -267 0 -8 7 -15 15 -15 21 0 20 -94
-1 -157 -21 -61 -83 -152 -131 -193 -36 -29 -37 -32 -19 -45 35 -26 119 -39
172 -26 118 30 221 137 306 318 29 62 58 113 64 113 19 0 61 -97 74 -170 13
-72 8 -139 -17 -215 -15 -46 -15 -50 1 -60 31 -18 257 -168 401 -266 298 -202
530 -330 644 -354 l34 -7 -26 43 c-157 257 -164 284 -191 737 -11 190 -17 237
-31 252 -17 19 -110 62 -280 128 l-100 39 1 39 c0 22 10 61 22 87 19 44 23 47
49 42 72 -16 235 -73 298 -106 l70 -35 3 -195 2 -195 46 -45 46 -44 -5 125
c-7 133 -16 234 -47 505 -30 262 -70 664 -70 707 0 44 -22 52 -41 16 -14 -28
-60 -78 -71 -78 -5 0 -38 25 -75 55 -190 157 -452 220 -686 166 -311 -72 -518
-288 -556 -578 l-8 -68 -2 56 c-1 63 27 165 66 244 94 186 265 328 458 380
147 39 374 27 552 -30 43 -14 83 -25 88 -25 10 0 115 234 115 257 0 10 -97 52
-190 82 -19 6 -80 18 -135 26 -317 48 -587 -30 -794 -229 -35 -33 -58 -51 -52
-40 17 35 139 142 216 189 86 54 175 88 286 111 168 34 419 6 625 -71 l70 -26
35 33 c125 117 320 253 479 332 58 29 112 55 120 58 12 4 8 11 -15 32 -132
118 -325 215 -542 271 -143 38 -139 39 -218 -61 -37 -47 -70 -83 -72 -80 -3 3
7 46 22 96 16 49 26 92 23 95 -20 20 -333 30 -473 15z m555 -1391 c-76 -68
-325 -229 -466 -299 -204 -103 -520 -211 -614 -210 -14 1 34 16 105 34 311 80
586 209 857 399 51 36 107 77 123 91 48 40 44 29 -5 -15z m-665 -819 c34 -54
31 -60 -9 -21 l-34 33 -162 -22 c-89 -11 -164 -19 -166 -18 -3 3 294 62 333
67 7 0 24 -17 38 -39z"/>
<path d="M2207 1443 c-36 -69 -35 -70 113 -127 74 -29 149 -59 165 -68 17 -9
40 -19 53 -22 20 -7 22 -4 22 33 0 39 -1 40 -54 60 -30 11 -85 34 -122 51 -60
27 -66 32 -62 55 6 30 6 31 -54 39 -44 7 -48 5 -61 -21z"/>
<path d="M2600 877 c0 -24 7 -115 16 -203 16 -166 32 -227 89 -351 36 -77 34
-76 144 -98 l33 -7 -37 68 c-21 38 -46 83 -55 99 -44 76 -73 175 -91 305 -25
183 -25 182 -64 208 l-35 22 0 -43z"/>
</g>
</svg>
